<svg xmlns="http://www.w3.org/2000/svg" width="22" height="22" viewBox="0 0 22 22">
  <g id="Arabic" transform="translate(-2986 -1116)">
    <rect id="Rectangle_87" data-name="Rectangle 87" width="22" height="22" rx="2" transform="translate(2986 1116)" fill="#73af00"/>
    <path id="Union_10" data-name="Union 10" d="M11.921,10a.179.179,0,0,1-.18-.178V9.466H3.828a2.528,2.528,0,0,1-1.619-.534h9.533V8.754a.18.18,0,0,1,.36,0v.178H13.36a.534.534,0,1,1,0,1.068Zm.18-.356H13.36a.179.179,0,0,0,.18-.178H12.1ZM13.54,9.466Zm0,0a.172.172,0,0,0-.032-.1ZM9.782,5.785a.177.177,0,0,1,.08-.239c.716-.354,1.16-.84,1.16-1.086,0-.275-.235-2.669-.359-3.9A.178.178,0,0,1,10.8.371a.18.18,0,0,1,.208.118l.18.534a.177.177,0,0,1-.1.22c.105,1.063.289,2.954.289,3.217,0,.5-.7,1.081-1.358,1.4a.182.182,0,0,1-.08.019A.18.18,0,0,1,9.782,5.785Zm4.856.054a.178.178,0,1,1,.023-.355.8.8,0,0,0,.66-.243,1.654,1.654,0,0,0,.3-1.335C15.418,2.443,15.1.616,15.094.6A.178.178,0,0,1,15.2.4a.181.181,0,0,1,.215.055l.326.423a.177.177,0,0,1-.034.249.179.179,0,0,1-.151.032c.112.668.29,1.755.417,2.694a1.972,1.972,0,0,1-.39,1.625,1.141,1.141,0,0,1-.855.359Zm-2.758-.085c-.309-.1-.443-.727-.5-1.091a.178.178,0,0,1,.153-.2.18.18,0,0,1,.2.151l0,.009c-.007-.338-.236-2.79-.359-4.06a.18.18,0,0,1,.35-.073l.18.534a.177.177,0,0,1-.1.221c.1,1.108.292,3.128.292,3.394a.179.179,0,0,1-.348.06,2.008,2.008,0,0,0,.224.7,2.493,2.493,0,0,0,.357-.753c.137-.382.212-.592.406-.6a.251.251,0,0,1,.241.161c.13.258.39.5.5.483.026,0,.053-.057.069-.1a14.153,14.153,0,0,0-.067-2.655c-.53-.709-.973-1.258-.982-1.27a.177.177,0,0,1,0-.223.182.182,0,0,1,.22-.047l.36.178a.177.177,0,0,1,.037.294c.09.115.2.251.309.4-.022-.247-.044-.482-.066-.694A.178.178,0,0,1,13.49.374.181.181,0,0,1,13.7.465l.18.356a.177.177,0,0,1-.08.239l-.029.011c.019.206.041.455.062.724.134.18.272.368.409.561-.122-.941-.259-1.722-.262-1.736a.178.178,0,0,1,.112-.2.181.181,0,0,1,.217.07l.3.467a.173.173,0,0,1,.02.051.175.175,0,0,1,.08-.161.181.181,0,0,1,.248.055,1,1,0,0,1,.114.7.18.18,0,0,1-.176.142.189.189,0,0,1-.037,0,.178.178,0,0,1-.14-.21.642.642,0,0,0-.066-.436.174.174,0,0,1-.02-.051.176.176,0,0,1-.192.188c.072.459.164,1.1.234,1.752a9.763,9.763,0,0,1,.823,1.4.177.177,0,0,1-.094.234.181.181,0,0,1-.236-.093,6.474,6.474,0,0,0-.421-.775c.022.3.036.6.036.861a.18.18,0,0,1-.36,0c0-.438-.04-.972-.1-1.505-.145-.213-.3-.428-.448-.638a9.91,9.91,0,0,1,.007,2.221.44.44,0,0,1-.385.346c-.292.023-.58-.274-.745-.512-.029.075-.061.162-.087.236a2.556,2.556,0,0,1-.445.889.355.355,0,0,1-.253.116A.3.3,0,0,1,11.879,5.754ZM4.616,5.12a10.381,10.381,0,0,1-1.074.569.178.178,0,1,1-.149-.324,9.5,9.5,0,0,0,1.157-.626c0-.035,0-.069,0-.1a.179.179,0,0,1,.18-.178h0a.178.178,0,0,1,.136.065,1.51,1.51,0,0,0,.589-.642,1.066,1.066,0,0,0-.1-.738.752.752,0,0,1-.084-.286.3.3,0,0,1,.172-.317c.186-.077.39.087.495.191a.176.176,0,0,1,0,.252.181.181,0,0,1-.254,0l-.011-.011L5.681,3a1.4,1.4,0,0,1,.12.965,2.051,2.051,0,0,1-.863.942c.039.2.127.438.329.438A1.412,1.412,0,0,0,6.346,3.926,2.549,2.549,0,0,0,6.016,2.6a.177.177,0,0,1,.05-.247.181.181,0,0,1,.249.049,2.74,2.74,0,0,1,.373,1.183,2.078,2.078,0,0,1,1.038-.444c.163-.436.391-.709.647-.76a.448.448,0,0,1,.455.192.394.394,0,0,1,.068.4c-.088.215-.389.377-.894.481q-.018.06-.035.127H9.235a.18.18,0,0,1,.147.076.176.176,0,0,1,.023.162l-.18.5a.18.18,0,0,1-.167.118c-.63.01-1.345.174-1.364.393a.3.3,0,0,0,.059.234.388.388,0,0,0,.224.108.178.178,0,0,1-.013.355A2.041,2.041,0,0,1,6.59,5a1.04,1.04,0,0,1-.12-.17,1.527,1.527,0,0,1-1.2.87A.7.7,0,0,1,4.616,5.12ZM6.739,4.069a.528.528,0,0,0-.038.075.751.751,0,0,0,.16.627,1.1,1.1,0,0,0,.5.3.745.745,0,0,1-.023-.27.6.6,0,0,1,.38-.464c-.042-.173-.6-.271-.894-.271C6.791,4.066,6.763,4.067,6.739,4.069ZM8.445,2.731c-.061.012-.172.1-.286.317.259-.075.383-.159.4-.209.005-.014-.016-.045-.023-.054-.036-.048-.063-.057-.081-.057ZM1.365,5.553A1.113,1.113,0,0,1,.771,4.438a.18.18,0,0,1,.357.044.76.76,0,0,0,.4.753.906.906,0,0,0,.9-.065,2.011,2.011,0,0,0,.863-1.6,1.832,1.832,0,0,1-.412.912,1.1,1.1,0,0,1-.825.414H2.014a.829.829,0,0,1-.6-.264,1.354,1.354,0,0,1-.282-.894.176.176,0,0,1,.189-.168.179.179,0,0,1,.17.187,1.008,1.008,0,0,0,.19.637.475.475,0,0,0,.349.147.757.757,0,0,0,.575-.29A1.483,1.483,0,0,0,2.9,3.7a.605.605,0,0,1-.536-.024.418.418,0,0,1-.138-.531.657.657,0,0,1,.633-.4.463.463,0,0,1,.394.306l.028-.026C3.237,1.969,3.11.578,3.109.561A.18.18,0,0,1,3.467.529c0,.015.111,1.218.159,2.25l.1-.068a.181.181,0,0,1,.2,0A.177.177,0,0,1,4,2.9a.43.43,0,0,0,0,.233c.178-.019.184-.247.184-.273a.18.18,0,0,1,.357-.029.431.431,0,0,0,.056.15c.13-.078.126-.29.126-.292A.179.179,0,0,1,4.9,2.5a.183.183,0,0,1,.187.169.673.673,0,0,1-.322.626.344.344,0,0,1-.317.01.326.326,0,0,1-.038-.022.5.5,0,0,1-.374.195.355.355,0,0,1-.307-.118A.4.4,0,0,1,3.646,3.2l0,0c0,.132.006.257.006.372a2.359,2.359,0,0,1-1.033,1.9,1.341,1.341,0,0,1-.705.21A1.233,1.233,0,0,1,1.365,5.553ZM2.556,3.28c-.005.013-.031.081,0,.1s.181.026.381-.09c0-.015,0-.03-.007-.044-.026-.134-.087-.14-.11-.142H2.807A.305.305,0,0,0,2.556,3.28ZM14,5.608a.176.176,0,0,1,0-.252.083.083,0,0,0,.027-.04A.075.075,0,0,0,14,5.28a.179.179,0,0,1,.24-.265.422.422,0,0,1,.141.29.4.4,0,0,1-.132.3.181.181,0,0,1-.254,0ZM8.736,5.475a.367.367,0,0,1-.1-.187L8.631,5.3a.181.181,0,0,1-.254,0,.176.176,0,0,1,0-.252l.36-.356a.181.181,0,0,1,.22-.027.177.177,0,0,1,.079.2.985.985,0,0,0-.047.329.509.509,0,0,0,.075-.106A.181.181,0,0,1,9.3,5.013a.177.177,0,0,1,.08.238.583.583,0,0,1-.365.322.316.316,0,0,1-.049,0A.331.331,0,0,1,8.736,5.475ZM.363,5.514c-.092-.007-.219-.062-.3-.28a1.516,1.516,0,0,1-.005-.82.181.181,0,0,1,.22-.126A.178.178,0,0,1,.4,4.505a1.184,1.184,0,0,0-.005.6L.4,5.124a.377.377,0,0,0,.03-.042.181.181,0,0,1,.246-.063.177.177,0,0,1,.065.242.472.472,0,0,1-.358.254Zm9.22-.52c0-1.058-.066-2.024-.141-2.78C9.047,1.6,8.664,1.064,8.477.81a.171.171,0,0,1-.026.039.181.181,0,0,1-.254,0L8.155.811a2.445,2.445,0,0,0,.093.3,1.82,1.82,0,0,1,.136.585.385.385,0,0,0,.2-.053.182.182,0,0,1,.248.055.176.176,0,0,1-.054.245.733.733,0,0,1-.373.113.49.49,0,0,1-.133-.02.528.528,0,0,1-.06.072.574.574,0,0,1-.392.166A.523.523,0,0,1,7.7,2.255a.671.671,0,0,1-.377-.28.828.828,0,0,1-.067.1.687.687,0,0,1-.547.251.464.464,0,0,1-.358-.162,1.107,1.107,0,0,1-.2-.632c-.1.3-.221.617-.517.617-.4,0-.54-.479-.54-.89a.179.179,0,0,1,.18-.178h0a.179.179,0,0,1,.18.178c0,.218.071.534.18.534.059-.026.144-.277.189-.412.1-.307.221-.655.53-.655a.181.181,0,0,1,.136.061.177.177,0,0,1,.042.142,1.7,1.7,0,0,0,.1,1,.1.1,0,0,0,.086.04.324.324,0,0,0,.269-.121A1.677,1.677,0,0,0,7.068.58.18.18,0,0,1,7.421.51a3,3,0,0,1,.055.985.171.171,0,0,1,.014.025c.073.217.183.363.294.391a.2.2,0,0,0,.184-.064c.112-.1.046-.322-.06-.619a1.6,1.6,0,0,1-.124-.5A.3.3,0,0,1,7.956.406.4.4,0,0,1,8.332.5.176.176,0,0,1,8.358.441a.18.18,0,0,1,.2-.065L9.1.554a.177.177,0,0,1,.114.225.18.18,0,0,1-.228.112l-.009,0c.108.151.236.334.374.537C9.284.9,9.228.584,9.226.577A.18.18,0,0,1,9.58.513c0,.011.112.619.21,1.578a11.742,11.742,0,0,1,1.04,1.95.178.178,0,0,1-.105.229.182.182,0,0,1-.063.011.18.18,0,0,1-.168-.115A8.971,8.971,0,0,0,9.862,2.9c.047.624.081,1.336.081,2.094a.18.18,0,0,1-.36,0Zm-5.4-.712A.331.331,0,0,0,4.154,4.1a.178.178,0,0,1,.034-.353c.015,0,.36.006.36.534a.18.18,0,0,1-.36,0Zm-2.351,0a.179.179,0,0,1-.167-.19c0-.013.051-.735.043-1.557l-.09.036a.362.362,0,0,1-.335-.036A.354.354,0,0,1,1.13,2.24V1.257a.09.09,0,0,0-.18,0v.979a.37.37,0,0,1-.335.346C.463,2.593.289,2.5.244,2.218l-.19-.926a.178.178,0,0,1,.141-.21.179.179,0,0,1,.212.139l.183.9V1.257a.45.45,0,0,1,.9,0v.983L1.7,2.154A6.051,6.051,0,0,0,1.5.6.177.177,0,0,1,1.612.376.18.18,0,0,1,1.84.489a6.072,6.072,0,0,1,.22,1.533.543.543,0,0,1,.374.037.156.156,0,0,0,.178-.028L2.644,2a.176.176,0,0,0,.043-.182L2.4.957A.177.177,0,0,1,2.451.766a.181.181,0,0,1,.2-.025l.36.178a.177.177,0,0,1,.08.239.181.181,0,0,1-.214.091l.153.455a.527.527,0,0,1-.13.546l-.032.032a.518.518,0,0,1-.593.1.182.182,0,0,0-.147-.006l-.054.022c.017.875-.039,1.666-.043,1.724a.179.179,0,0,1-.179.165Zm11.428-.122a.179.179,0,0,1-.173-.184.489.489,0,0,0-.036-.256.177.177,0,0,1-.016-.236.181.181,0,0,1,.252-.031c.052.04.172.173.159.536a.179.179,0,0,1-.18.172ZM.256,3.661a.177.177,0,0,1,.062-.244l.9-.534a.181.181,0,0,1,.247.061.177.177,0,0,1-.062.244l-.9.534a.181.181,0,0,1-.247-.061ZM12.382,3.54a.177.177,0,0,1,.041-.248l.674-.478a.181.181,0,0,1,.251.041.177.177,0,0,1-.041.248l-.674.478a.181.181,0,0,1-.251-.041ZM7.239,3.011A.485.485,0,0,1,6.9,2.76a.177.177,0,0,1,.08-.239.181.181,0,0,1,.24.077c.007.012.038.056.072.061.015,0,.073,0,.18-.106a.181.181,0,0,1,.254,0,.177.177,0,0,1,0,.252.617.617,0,0,1-.426.21A.426.426,0,0,1,7.239,3.011Zm5.455-.383-.539-.534a.176.176,0,0,1,0-.252.181.181,0,0,1,.254,0l.208.206a.405.405,0,0,1,.091-.191.327.327,0,0,1,.3-.1.178.178,0,0,1,.153.2.182.182,0,0,1-.187.153.889.889,0,0,0,.026.345.177.177,0,0,1-.085.2.181.181,0,0,1-.216-.029ZM4.446,2.259a.539.539,0,0,1-.07-.525A.18.18,0,0,1,4.6,1.622a.177.177,0,0,1,.114.224.337.337,0,0,0-.015.163.633.633,0,0,0,.147-.031.18.18,0,0,1,.228.112.177.177,0,0,1-.114.225.8.8,0,0,1-.248.045h0A.365.365,0,0,1,4.446,2.259Zm5.8-.115a.4.4,0,0,1-.293-.277.177.177,0,0,1,.114-.225.18.18,0,0,1,.227.111l0,.008a.531.531,0,0,0,.037-.049.181.181,0,0,1,.249-.049.177.177,0,0,1,.05.247.441.441,0,0,1-.348.238ZM3.858,1.722a.177.177,0,0,1,.03-.25l.642-.5a.44.44,0,0,1-.164-.34.45.45,0,0,1,.9,0,.443.443,0,0,1-.219.38.171.171,0,0,1-.03.034l-.907.7a.181.181,0,0,1-.253-.03ZM4.727.634a.09.09,0,1,0,.09-.089A.09.09,0,0,0,4.727.634Zm5.4.445A1.569,1.569,0,0,0,9.962.624a.177.177,0,0,1,.08-.239.181.181,0,0,1,.241.08,1.8,1.8,0,0,1,.2.613.18.18,0,0,1-.36,0ZM6.662.886A.178.178,0,0,1,6.54.665l.1-.356A.18.18,0,0,1,6.868.189.178.178,0,0,1,6.99.409l-.1.356a.181.181,0,0,1-.223.121ZM5.614.865A.437.437,0,0,1,5.408.426.49.49,0,0,1,5.741.008a.181.181,0,0,1,.225.117.178.178,0,0,1-.118.223.14.14,0,0,0-.083.119c0,.012-.006.071.03.091A.177.177,0,0,1,5.86.8a.181.181,0,0,1-.246.064ZM.41.545V.367a.18.18,0,0,1,.36,0V.545a.18.18,0,0,1-.36,0Zm1.979,0a.178.178,0,1,1,0-.356h.18a.178.178,0,1,1,0,.356Z" transform="translate(2989 1122)" fill="#f5f5f5"/>
  </g>
</svg>
