<svg xmlns="http://www.w3.org/2000/svg" width="22" height="22" viewBox="0 0 22 22">
  <g id="English" transform="translate(-345 -40)">
    <path id="Rectangle_79" data-name="Rectangle 79" d="M2,0H20a2,2,0,0,1,2,2V2a0,0,0,0,1,0,0H0A0,0,0,0,1,0,2V2A2,2,0,0,1,2,0Z" transform="translate(345 40)" fill="#ff4b55"/>
    <rect id="Rectangle_94" data-name="Rectangle 94" width="22" height="2" transform="translate(345 48)" fill="#ff4b55"/>
    <rect id="Rectangle_98" data-name="Rectangle 98" width="22" height="2" transform="translate(345 56)" fill="#ff4b55"/>
    <rect id="Rectangle_90" data-name="Rectangle 90" width="22" height="2" transform="translate(345 44)" fill="#ff4b55"/>
    <rect id="Rectangle_92" data-name="Rectangle 92" width="22" height="2" transform="translate(345 52)" fill="#ff4b55"/>
    <path id="Rectangle_96" data-name="Rectangle 96" d="M0,0H22a0,0,0,0,1,0,0V0a2,2,0,0,1-2,2H2A2,2,0,0,1,0,0V0A0,0,0,0,1,0,0Z" transform="translate(345 60)" fill="#ff4b55"/>
    <rect id="Rectangle_88" data-name="Rectangle 88" width="22" height="2" transform="translate(345 42)" fill="#fff"/>
    <rect id="Rectangle_93" data-name="Rectangle 93" width="22" height="2" transform="translate(345 50)" fill="#fff"/>
    <rect id="Rectangle_97" data-name="Rectangle 97" width="22" height="2" transform="translate(345 58)" fill="#fff"/>
    <rect id="Rectangle_89" data-name="Rectangle 89" width="22" height="2" transform="translate(345 46)" fill="#fff"/>
    <rect id="Rectangle_91" data-name="Rectangle 91" width="22" height="2" transform="translate(345 54)" fill="#fff"/>
    <path id="Rectangle_86" data-name="Rectangle 86" d="M2,0H12a0,0,0,0,1,0,0V12a0,0,0,0,1,0,0H0a0,0,0,0,1,0,0V2A2,2,0,0,1,2,0Z" transform="translate(345 40)" fill="#41479b"/>
    <path id="Union_7" data-name="Union 7" d="M9.241,9.95l.088-.269-.235-.167a.038.038,0,0,1,.023-.069l.292,0L9.5,9.176a.04.04,0,0,1,.075,0l.092.267.292,0a.038.038,0,0,1,.023.069l-.235.167.088.269a.039.039,0,0,1-.06.042l-.238-.164L9.3,9.993A.04.04,0,0,1,9.278,10,.038.038,0,0,1,9.241,9.95Zm-2.269,0,.088-.269-.235-.167a.038.038,0,0,1,.023-.069l.292,0,.092-.267a.04.04,0,0,1,.075,0l.092.267.292,0a.038.038,0,0,1,.023.069l-.235.167.088.269a.039.039,0,0,1-.06.042l-.238-.164-.238.164A.04.04,0,0,1,7.009,10,.038.038,0,0,1,6.971,9.95ZM4.7,9.95l.088-.269-.235-.167a.038.038,0,0,1,.023-.069l.292,0,.092-.267a.04.04,0,0,1,.075,0l.092.267.292,0a.038.038,0,0,1,.023.069l-.235.167L5.3,9.95a.039.039,0,0,1-.06.042L5,9.829l-.238.164A.04.04,0,0,1,4.74,10,.038.038,0,0,1,4.7,9.95Zm-2.269,0,.088-.269-.235-.167a.038.038,0,0,1,.023-.069l.292,0,.092-.267a.04.04,0,0,1,.075,0l.092.267.292,0a.038.038,0,0,1,.023.069l-.235.167.088.269a.039.039,0,0,1-.06.042l-.238-.164-.238.164A.04.04,0,0,1,2.47,10,.038.038,0,0,1,2.432,9.95Zm-2.269,0,.088-.269L.016,9.514a.038.038,0,0,1,.023-.069l.292,0,.092-.267a.04.04,0,0,1,.075,0l.092.267.292,0a.038.038,0,0,1,.023.069l-.235.167.088.269a.039.039,0,0,1-.06.042L.461,9.829l-.238.164A.04.04,0,0,1,.2,10,.038.038,0,0,1,.163,9.95ZM8.106,8.884l.088-.269-.235-.167a.038.038,0,0,1,.023-.069l.292,0,.092-.267a.04.04,0,0,1,.075,0l.092.267.292,0a.038.038,0,0,1,.023.069l-.235.167.088.269a.039.039,0,0,1-.06.042L8.4,8.762l-.238.164a.04.04,0,0,1-.023.007A.038.038,0,0,1,8.106,8.884Zm-2.269,0,.088-.269L5.69,8.448a.038.038,0,0,1,.023-.069l.292,0L6.1,8.109a.04.04,0,0,1,.075,0l.092.267.292,0a.038.038,0,0,1,.023.069l-.235.167.088.269a.039.039,0,0,1-.06.042l-.238-.164L5.9,8.926a.04.04,0,0,1-.023.007A.038.038,0,0,1,5.837,8.884Zm-2.269,0,.088-.269L3.42,8.448a.038.038,0,0,1,.023-.069l.292,0,.092-.267a.04.04,0,0,1,.075,0L4,8.377l.292,0a.038.038,0,0,1,.023.069l-.235.167.088.269a.039.039,0,0,1-.06.042l-.238-.164-.238.164a.04.04,0,0,1-.023.007A.038.038,0,0,1,3.567,8.884Zm-2.269,0,.088-.269-.235-.167a.038.038,0,0,1,.023-.069l.292,0,.092-.267a.04.04,0,0,1,.075,0l.092.267.292,0a.038.038,0,0,1,.023.069l-.235.167.088.269a.039.039,0,0,1-.06.042L1.6,8.762l-.238.164a.04.04,0,0,1-.023.007A.038.038,0,0,1,1.3,8.884ZM9.241,7.858l.088-.269-.235-.167a.038.038,0,0,1,.023-.069l.292,0L9.5,7.084a.04.04,0,0,1,.075,0l.092.267.292,0a.038.038,0,0,1,.023.069l-.235.167.088.269a.039.039,0,0,1-.06.042l-.238-.164L9.3,7.9a.04.04,0,0,1-.023.007A.038.038,0,0,1,9.241,7.858Zm-2.269,0,.088-.269-.235-.167a.038.038,0,0,1,.023-.069l.292,0,.092-.267a.04.04,0,0,1,.075,0l.092.267.292,0a.038.038,0,0,1,.023.069l-.235.167.088.269a.039.039,0,0,1-.06.042l-.238-.164L7.032,7.9a.04.04,0,0,1-.023.007A.038.038,0,0,1,6.971,7.858Zm-2.269,0,.088-.269-.235-.167a.038.038,0,0,1,.023-.069l.292,0,.092-.267a.04.04,0,0,1,.075,0l.092.267.292,0a.038.038,0,0,1,.023.069l-.235.167.088.269a.039.039,0,0,1-.06.042L5,7.737,4.762,7.9a.04.04,0,0,1-.023.007A.038.038,0,0,1,4.7,7.858ZM2.968,7.9l-.238-.164L2.493,7.9a.039.039,0,0,1-.06-.042l.088-.269-.235-.167a.038.038,0,0,1,.023-.069l.292,0,.092-.267a.04.04,0,0,1,.075,0l.092.267.292,0a.038.038,0,0,1,.023.069l-.235.167.088.269a.038.038,0,0,1-.038.05A.04.04,0,0,1,2.968,7.9ZM.163,7.858l.088-.269L.016,7.422a.038.038,0,0,1,.023-.069l.292,0,.092-.267a.04.04,0,0,1,.075,0l.092.267.292,0a.038.038,0,0,1,.023.069l-.235.167.088.269A.039.039,0,0,1,.7,7.9L.461,7.737.223,7.9A.04.04,0,0,1,.2,7.908.038.038,0,0,1,.163,7.858ZM8.106,6.749l.088-.269-.235-.167a.038.038,0,0,1,.023-.069l.292,0,.092-.267a.04.04,0,0,1,.075,0l.092.267.292,0a.038.038,0,0,1,.023.069l-.235.167.088.269a.039.039,0,0,1-.06.042L8.4,6.627l-.238.164a.04.04,0,0,1-.023.007A.038.038,0,0,1,8.106,6.749Zm-2.269,0,.088-.269L5.69,6.312a.038.038,0,0,1,.023-.069l.292,0L6.1,5.974a.04.04,0,0,1,.075,0l.092.267.292,0a.038.038,0,0,1,.023.069l-.235.167.088.269a.039.039,0,0,1-.06.042l-.238-.164L5.9,6.791a.04.04,0,0,1-.023.007A.038.038,0,0,1,5.837,6.749Zm-2.269,0,.088-.269L3.42,6.312a.038.038,0,0,1,.023-.069l.292,0,.092-.267a.04.04,0,0,1,.075,0L4,6.242l.292,0a.038.038,0,0,1,.023.069l-.235.167.088.269a.039.039,0,0,1-.06.042l-.238-.164-.238.164A.04.04,0,0,1,3.6,6.8.038.038,0,0,1,3.567,6.749Zm-2.269,0,.088-.269-.235-.167a.038.038,0,0,1,.023-.069l.292,0,.092-.267a.04.04,0,0,1,.075,0l.092.267.292,0a.038.038,0,0,1,.023.069l-.235.167.088.269a.039.039,0,0,1-.06.042L1.6,6.627l-.238.164a.04.04,0,0,1-.023.007A.038.038,0,0,1,1.3,6.749Zm7.943-1.19.088-.269-.235-.167a.038.038,0,0,1,.023-.069l.292,0L9.5,4.785a.04.04,0,0,1,.075,0l.092.267.292,0a.038.038,0,0,1,.023.069l-.235.167.088.269a.039.039,0,0,1-.06.042l-.238-.164L9.3,5.6a.04.04,0,0,1-.023.007A.038.038,0,0,1,9.241,5.559Zm-2.269,0,.088-.269-.235-.167a.038.038,0,0,1,.023-.069l.292,0,.092-.267a.04.04,0,0,1,.075,0l.092.267.292,0a.038.038,0,0,1,.023.069l-.235.167.088.269a.039.039,0,0,1-.06.042l-.238-.164L7.032,5.6a.04.04,0,0,1-.023.007A.038.038,0,0,1,6.971,5.559Zm-2.269,0L4.79,5.29l-.235-.167a.038.038,0,0,1,.023-.069l.292,0,.092-.267a.04.04,0,0,1,.075,0l.092.267.292,0a.038.038,0,0,1,.023.069L5.21,5.29l.088.269a.039.039,0,0,1-.06.042L5,5.437,4.762,5.6a.04.04,0,0,1-.023.007A.038.038,0,0,1,4.7,5.559Zm-2.269,0,.088-.269-.235-.167a.038.038,0,0,1,.023-.069l.292,0,.092-.267a.04.04,0,0,1,.075,0l.092.267.292,0a.038.038,0,0,1,.023.069l-.235.167.088.269a.039.039,0,0,1-.06.042l-.238-.164L2.493,5.6a.04.04,0,0,1-.023.007A.038.038,0,0,1,2.432,5.559Zm-2.269,0L.251,5.29.016,5.123a.038.038,0,0,1,.023-.069l.292,0,.092-.267a.04.04,0,0,1,.075,0l.092.267.292,0a.038.038,0,0,1,.023.069L.671,5.29l.088.269A.039.039,0,0,1,.7,5.6L.461,5.437.223,5.6A.04.04,0,0,1,.2,5.609.038.038,0,0,1,.163,5.559ZM8.106,4.371,8.194,4.1l-.235-.167a.038.038,0,0,1,.023-.069l.292,0L8.367,3.6a.04.04,0,0,1,.075,0l.092.267.292,0a.038.038,0,0,1,.023.069L8.614,4.1l.088.269a.039.039,0,0,1-.06.042L8.4,4.25l-.238.164a.04.04,0,0,1-.023.007A.038.038,0,0,1,8.106,4.371Zm-2.269,0L5.925,4.1,5.69,3.935a.038.038,0,0,1,.023-.069l.292,0L6.1,3.6a.04.04,0,0,1,.075,0l.092.267.292,0a.038.038,0,0,1,.023.069L6.345,4.1l.088.269a.039.039,0,0,1-.06.042L6.135,4.25,5.9,4.414a.04.04,0,0,1-.023.007A.038.038,0,0,1,5.837,4.371Zm-2.269,0L3.655,4.1,3.42,3.935a.038.038,0,0,1,.023-.069l.292,0L3.828,3.6a.04.04,0,0,1,.075,0L4,3.864l.292,0a.038.038,0,0,1,.023.069L4.075,4.1l.088.269a.039.039,0,0,1-.06.042L3.865,4.25l-.238.164a.04.04,0,0,1-.023.007A.038.038,0,0,1,3.567,4.371Zm-2.269,0L1.386,4.1l-.235-.167a.038.038,0,0,1,.023-.069l.292,0L1.558,3.6a.04.04,0,0,1,.075,0l.092.267.292,0a.038.038,0,0,1,.023.069L1.806,4.1l.088.269a.039.039,0,0,1-.06.042L1.6,4.25l-.238.164a.04.04,0,0,1-.023.007A.038.038,0,0,1,1.3,4.371ZM9.241,3.057l.088-.269L9.094,2.62a.038.038,0,0,1,.023-.069l.292,0L9.5,2.282a.04.04,0,0,1,.075,0l.092.267.292,0a.038.038,0,0,1,.023.069l-.235.167.088.269a.039.039,0,0,1-.06.042l-.238-.164L9.3,3.1a.04.04,0,0,1-.023.007A.038.038,0,0,1,9.241,3.057Zm-2.269,0,.088-.269L6.824,2.62a.038.038,0,0,1,.023-.069l.292,0,.092-.267a.04.04,0,0,1,.075,0L7.4,2.55l.292,0a.038.038,0,0,1,.023.069l-.235.167.088.269a.039.039,0,0,1-.06.042l-.238-.164L7.032,3.1a.04.04,0,0,1-.023.007A.038.038,0,0,1,6.971,3.057Zm-2.269,0,.088-.269L4.555,2.62a.038.038,0,0,1,.023-.069l.292,0,.092-.267a.04.04,0,0,1,.075,0l.092.267.292,0a.038.038,0,0,1,.023.069l-.235.167.088.269a.039.039,0,0,1-.06.042L5,2.935,4.762,3.1a.04.04,0,0,1-.023.007A.038.038,0,0,1,4.7,3.057Zm-2.269,0,.088-.269L2.286,2.62a.038.038,0,0,1,.023-.069l.292,0,.092-.267a.04.04,0,0,1,.075,0l.092.267.292,0a.038.038,0,0,1,.023.069l-.235.167.088.269a.039.039,0,0,1-.06.042l-.238-.164L2.493,3.1a.04.04,0,0,1-.023.007A.038.038,0,0,1,2.432,3.057Zm-2.269,0,.088-.269L.016,2.62a.038.038,0,0,1,.023-.069l.292,0,.092-.267a.04.04,0,0,1,.075,0l.092.267.292,0a.038.038,0,0,1,.023.069l-.235.167.088.269A.039.039,0,0,1,.7,3.1L.461,2.935.223,3.1A.04.04,0,0,1,.2,3.106.038.038,0,0,1,.163,3.057ZM8.106,1.869,8.194,1.6l-.235-.167a.038.038,0,0,1,.023-.069l.292,0,.092-.267a.04.04,0,0,1,.075,0l.092.267.292,0a.038.038,0,0,1,.023.069L8.614,1.6l.088.269a.039.039,0,0,1-.06.042L8.4,1.747l-.238.164a.04.04,0,0,1-.023.007A.038.038,0,0,1,8.106,1.869Zm-2.269,0L5.925,1.6,5.69,1.433a.038.038,0,0,1,.023-.069l.292,0L6.1,1.094a.04.04,0,0,1,.075,0l.092.267.292,0a.038.038,0,0,1,.023.069L6.345,1.6l.088.269a.039.039,0,0,1-.06.042l-.238-.164L5.9,1.911a.04.04,0,0,1-.023.007A.038.038,0,0,1,5.837,1.869Zm-2.269,0L3.655,1.6,3.42,1.433a.038.038,0,0,1,.023-.069l.292,0,.092-.267a.04.04,0,0,1,.075,0L4,1.362l.292,0a.038.038,0,0,1,.023.069L4.075,1.6l.088.269a.039.039,0,0,1-.06.042l-.238-.164-.238.164a.04.04,0,0,1-.023.007A.038.038,0,0,1,3.567,1.869Zm-2.269,0L1.386,1.6l-.235-.167a.038.038,0,0,1,.023-.069l.292,0,.092-.267a.04.04,0,0,1,.075,0l.092.267.292,0a.038.038,0,0,1,.023.069L1.806,1.6l.088.269a.039.039,0,0,1-.06.042L1.6,1.747l-.238.164a.04.04,0,0,1-.023.007A.038.038,0,0,1,1.3,1.869ZM9.241.8,9.329.532,9.094.364A.038.038,0,0,1,9.117.3l.292,0L9.5.026a.04.04,0,0,1,.075,0l.092.267.292,0a.038.038,0,0,1,.023.069L9.749.532,9.837.8a.039.039,0,0,1-.06.042L9.539.679,9.3.843A.04.04,0,0,1,9.278.85.038.038,0,0,1,9.241.8ZM6.971.8,7.059.532,6.824.364A.038.038,0,0,1,6.847.3l.292,0L7.232.026a.04.04,0,0,1,.075,0L7.4.293l.292,0a.038.038,0,0,1,.023.069L7.479.532,7.568.8a.039.039,0,0,1-.06.042L7.269.679,7.032.843A.04.04,0,0,1,7.009.85.038.038,0,0,1,6.971.8ZM4.7.8,4.79.532,4.555.364A.038.038,0,0,1,4.578.3l.292,0L4.963.026a.04.04,0,0,1,.075,0L5.13.293l.292,0a.038.038,0,0,1,.023.069L5.21.532,5.3.8a.039.039,0,0,1-.06.042L5,.679,4.762.843A.04.04,0,0,1,4.74.85.038.038,0,0,1,4.7.8ZM2.432.8,2.521.532,2.286.364A.038.038,0,0,1,2.309.3l.292,0L2.693.026a.04.04,0,0,1,.075,0L2.86.293l.292,0a.038.038,0,0,1,.023.069L2.941.532,3.029.8a.039.039,0,0,1-.06.042L2.731.679,2.493.843A.04.04,0,0,1,2.47.85.038.038,0,0,1,2.432.8ZM.163.8.251.532.016.364A.038.038,0,0,1,.039.3l.292,0L.424.026A.04.04,0,0,1,.5.026L.591.293.883.3A.038.038,0,0,1,.906.364L.671.532.759.8A.039.039,0,0,1,.7.843L.461.679.223.843A.04.04,0,0,1,.2.85.038.038,0,0,1,.163.8Z" transform="translate(346 41)" fill="#f5f5f5"/>
  </g>
</svg>
