<svg xmlns="http://www.w3.org/2000/svg" width="18" height="24" viewBox="0 0 18 24">
  <path id="Recent_Orders_selected" data-name="Recent Orders selected" d="M16,2h-.171A3.006,3.006,0,0,0,13,0H11A3.006,3.006,0,0,0,8.171,2H8A5.006,5.006,0,0,0,3,7V19a5.006,5.006,0,0,0,5,5h8a5.006,5.006,0,0,0,5-5V7A5.006,5.006,0,0,0,16,2ZM7,17a1,1,0,0,1,0-2A1,1,0,0,1,7,17Zm.667-5a1.653,1.653,0,0,1-1.178-.488l-1.008-.951A1,1,0,0,1,6.854,9.106l.811.766,1.64-1.59A1,1,0,0,1,10.7,9.718L8.835,11.523A1.644,1.644,0,0,1,7.668,12ZM17,17H11a1,1,0,0,1,0-2h6A1,1,0,0,1,17,17Zm0-5H13a1,1,0,0,1,0-2h4A1,1,0,0,1,17,12Z" transform="translate(-3)" fill="#f5c62c"/>
</svg>
