<svg id="check_box" data-name="check box" xmlns="http://www.w3.org/2000/svg" width="19" height="19" viewBox="0 0 19 19">
  <rect id="Rectangle_25" data-name="Rectangle 25" width="19" height="19" rx="5" fill="#f5c62c"/>
  <path id="Path_5" data-name="Path 5" d="M2.906,77.573a.928.928,0,0,1-.681-.3L.166,75.052a.645.645,0,0,1,0-.865h0a.539.539,0,0,1,.8,0l1.937,2.087,5.125-5.522a.539.539,0,0,1,.8,0h0a.645.645,0,0,1,0,.865L3.587,77.269A.928.928,0,0,1,2.906,77.573Z" transform="translate(5 -64.573)" fill="#4a4a4a"/>
</svg>
