<svg xmlns="http://www.w3.org/2000/svg" width="15" height="15" viewBox="0 0 15 15">
  <path id="cross" d="M20.358,6.056h0a1.192,1.192,0,0,0-1.685,0l-5.466,5.466L7.741,6.056a1.192,1.192,0,0,0-1.685,0h0a1.192,1.192,0,0,0,0,1.685l5.466,5.466L6.056,18.673a1.192,1.192,0,0,0,0,1.685h0a1.192,1.192,0,0,0,1.685,0l5.466-5.466,5.466,5.466a1.192,1.192,0,0,0,1.685,0h0a1.192,1.192,0,0,0,0-1.685l-5.466-5.466,5.466-5.466A1.192,1.192,0,0,0,20.358,6.056Z" transform="translate(-5.707 -5.707)" fill="#4a4a4a"/>
</svg>
