<svg xmlns="http://www.w3.org/2000/svg" width="26" height="22" viewBox="0 0 26 22">
  <path id="eye_close" data-name="eye close" d="M21.979,21.913c-1.212-1.2-2.431-2.395-3.642-3.6a.312.312,0,0,0-.391-.084A14.118,14.118,0,0,1,4.778,16.507a13.827,13.827,0,0,1-4.742-5.93.4.4,0,0,1,.007-.348A13.7,13.7,0,0,1,4.193,4.766c.173-.138.161-.2.012-.347C3.257,3.5,2.32,2.571,1.379,1.646c-.23-.226-.23-.226.009-.461C1.748.831,2.116.486,2.462.12c.149-.158.226-.162.387,0q4.728,4.668,9.468,9.324L23.443,20.388c.059.058.115.119.177.182-.042.043-.076.08-.111.115-.42.412-.846.819-1.258,1.238A.2.2,0,0,1,22.12,22C22.075,22,22.034,21.967,21.979,21.913ZM8.821,14.544a5.887,5.887,0,0,0,6.718,1.062c-.026-.085-.1-.129-.161-.187-.478-.473-.963-.938-1.433-1.419a.463.463,0,0,0-.466-.148,3.033,3.033,0,0,1-1.284-.043A3.469,3.469,0,0,1,9.493,9.8a.216.216,0,0,0-.048-.225C8.868,9.011,8.294,8.445,7.7,7.865A5.694,5.694,0,0,0,8.821,14.544ZM21.8,15.807q-1.6-1.578-3.2-3.146a.243.243,0,0,1-.07-.3,5.612,5.612,0,0,0-.3-4.618,5.943,5.943,0,0,0-6.14-3.074,7.073,7.073,0,0,0-1.126.288c-.087.03-.151.044-.226-.03C9.93,4.12,9.118,3.317,8.29,2.5a14.121,14.121,0,0,1,1.947-.545,13.907,13.907,0,0,1,8.942,1.163A13.673,13.673,0,0,1,25.818,10a.861.861,0,0,0,.183.342v.15a1.281,1.281,0,0,0-.243.474,13.9,13.9,0,0,1-3.69,4.863.2.2,0,0,1-.125.062C21.9,15.89,21.855,15.859,21.8,15.807ZM12.882,6.942A3.436,3.436,0,0,1,16.5,10.5Z" transform="translate(0 0)" fill="#d0d3d7"/>
</svg>
