<svg xmlns="http://www.w3.org/2000/svg" width="26" height="17.664" viewBox="0 0 26 17.664">
  <path id="eye" d="M10.539,17.437a12.656,12.656,0,0,1-2.3-.669,13.651,13.651,0,0,1-2.162-1.1,16.073,16.073,0,0,1-2.031-1.505A15.452,15.452,0,0,1,2.918,13.08c-.351-.374-.691-.773-1.011-1.187s-.614-.835-.9-1.279S.468,9.722.219,9.249C.2,9.217.186,9.183.171,9.15A.8.8,0,0,0,0,8.882v-.1c.09-.156.181-.315.268-.468C.459,7.976.656,7.63.861,7.3A17.991,17.991,0,0,1,2.12,5.5,16.065,16.065,0,0,1,3.57,3.921,14.98,14.98,0,0,1,7.078,1.427,13.132,13.132,0,0,1,9.288.53,12.226,12.226,0,0,1,11.625.069C12.1.023,12.575,0,13.037,0a13.192,13.192,0,0,1,2.631.261,12.683,12.683,0,0,1,2.455.769,13.8,13.8,0,0,1,2.286,1.254A16.621,16.621,0,0,1,22.532,4c.349.331.688.686,1.009,1.055s.616.742.9,1.138A19.021,19.021,0,0,1,25.96,8.69a.269.269,0,0,1,0,.282,19.5,19.5,0,0,1-1.038,1.8,17.311,17.311,0,0,1-1.214,1.641,16.029,16.029,0,0,1-1.4,1.475,15.632,15.632,0,0,1-1.6,1.3,14.776,14.776,0,0,1-1.453.905,13.394,13.394,0,0,1-1.528.71,12.685,12.685,0,0,1-1.6.5,12.626,12.626,0,0,1-1.681.288,14.367,14.367,0,0,1-1.462.076A13.056,13.056,0,0,1,10.539,17.437ZM7.053,8.9A5.947,5.947,0,1,0,13,2.967,5.947,5.947,0,0,0,7.053,8.9Zm2.42,0A3.527,3.527,0,1,1,13,12.42,3.523,3.523,0,0,1,9.473,8.9Z" fill="#d0d3d7"/>
</svg>
