<svg xmlns="http://www.w3.org/2000/svg" width="432" height="540" viewBox="0 0 432 540">
  <g id="Group_6" data-name="Group 6" transform="translate(-753 914)">
    <rect id="Rectangle_2" data-name="Rectangle 2" width="108" height="108" transform="translate(753 -914)" fill="#f5c62c"/>
    <rect id="Rectangle_6" data-name="Rectangle 6" width="108" height="108" transform="translate(753 -806)" fill="#4a4a4a"/>
    <rect id="Rectangle_10" data-name="Rectangle 10" width="108" height="108" transform="translate(753 -698)" fill="#444f60"/>
    <rect id="Rectangle_11" data-name="Rectangle 11" width="108" height="108" transform="translate(753 -590)" fill="#999"/>
    <rect id="Rectangle_27" data-name="Rectangle 27" width="108" height="108" transform="translate(753 -482)" fill="#009ef7"/>
    <rect id="Rectangle_4" data-name="Rectangle 4" width="108" height="108" transform="translate(969 -914)" fill="#fae295"/>
    <rect id="Rectangle_15" data-name="Rectangle 15" width="108" height="108" transform="translate(969 -698)" fill="#a1a6af"/>
    <rect id="Rectangle_7" data-name="Rectangle 7" width="108" height="108" transform="translate(969 -806)" fill="#a4a4a4"/>
    <rect id="Rectangle_12" data-name="Rectangle 12" width="108" height="108" transform="translate(969 -590)" fill="#ccc"/>
    <rect id="Rectangle_29" data-name="Rectangle 29" width="108" height="108" transform="translate(969 -482)" fill="#7fcefb"/>
    <rect id="Rectangle_3" data-name="Rectangle 3" width="108" height="108" transform="translate(861 -914)" fill="#f7d461"/>
    <rect id="Rectangle_16" data-name="Rectangle 16" width="108" height="108" transform="translate(861 -698)" fill="#737b88"/>
    <rect id="Rectangle_8" data-name="Rectangle 8" width="108" height="108" transform="translate(861 -806)" fill="#777"/>
    <rect id="Rectangle_13" data-name="Rectangle 13" width="108" height="108" transform="translate(861 -590)" fill="#b2b2b2"/>
    <rect id="Rectangle_28" data-name="Rectangle 28" width="108" height="108" transform="translate(861 -482)" fill="#40b6f9"/>
    <rect id="Rectangle_5" data-name="Rectangle 5" width="108" height="108" transform="translate(1077 -914)" fill="#fdf1ca"/>
    <rect id="Rectangle_17" data-name="Rectangle 17" width="108" height="108" transform="translate(1077 -698)" fill="#d0d3d7"/>
    <rect id="Rectangle_9" data-name="Rectangle 9" width="108" height="108" transform="translate(1077 -806)" fill="#d1d1d1"/>
    <rect id="Rectangle_14" data-name="Rectangle 14" width="108" height="108" transform="translate(1077 -590)" fill="#e5e5e5"/>
    <rect id="Rectangle_30" data-name="Rectangle 30" width="108" height="108" transform="translate(1077 -482)" fill="#bfe7fd"/>
  </g>
</svg>
