<svg xmlns="http://www.w3.org/2000/svg" width="54" height="60" viewBox="0 0 54 60">
  <g id="Group_4" data-name="Group 4" transform="translate(-686.601 -971.126)">
    <path id="Path_6" data-name="Path 6" d="M800.871,984.35a1.032,1.032,0,0,0-1.5-.068,5.723,5.723,0,0,1-2.4,1.113,3.519,3.519,0,0,1-4.249-3.159,5.167,5.167,0,0,1,3.429-5.279.846.846,0,0,0,.643-.755,5.875,5.875,0,0,1,9.013-4.164.724.724,0,0,0,.867,0,5.11,5.11,0,0,1,6.757,1.256,3.449,3.449,0,0,1-.865,4.846,5.256,5.256,0,0,1-2.236,1.014,1.13,1.13,0,0,0-1,1.1,3.258,3.258,0,0,0,.12,1.673l.245.941a5.59,5.59,0,0,0-6.463,3.925c-.032.092-.05.218-.19.231-.193-.37-.36-.5-.8-.2a14.3,14.3,0,0,0-3.835,3.655,4.012,4.012,0,0,0-1.034,2.3c.455-.635.88-1.284,1.362-1.889a16.194,16.194,0,0,1,4.313-3.869c.111,2.6.218,5.2.341,7.8a.542.542,0,0,1-.286.527,3.345,3.345,0,0,0-1.312,1.96,8.6,8.6,0,0,0,.365,4.866,2.255,2.255,0,0,0,.438,1.037c.039-1.411-.174-2.807.757-4.028l.519,3.725h.173c.3-1.217.311-2.49.65-3.721a7.289,7.289,0,0,1,.741,3.9,10.719,10.719,0,0,0,.935-4.322.8.8,0,0,0-.067-.659.154.154,0,0,0-.017-.126,2.973,2.973,0,0,0-1.02-2.248,1.624,1.624,0,0,1-.657-1.673,2.071,2.071,0,0,0-.022-.389c.116-1.2.122-2.413.165-3.62.051-1.421.15-2.84.227-4.26l1.18-.563a2.513,2.513,0,0,0-1.16.186c-.12-.457.085-.658.521-.784a14.813,14.813,0,0,1,7.716-.1.857.857,0,0,1,.763.974c.085,3.037.22,6.073.351,9.108a.716.716,0,0,1-.344.748,3.053,3.053,0,0,0-1.194,1.582,6.744,6.744,0,0,0,.5,5.23,1.924,1.924,0,0,0,1.615,1.357c.821,0,1.293-.711,1.662-1.4a7.189,7.189,0,0,0,.759-2.679,4.141,4.141,0,0,0-1.575-4.155.541.541,0,0,1-.241-.544c.112-2.819.233-5.639.32-8.459.019-.608.22-.706.71-.422a15.219,15.219,0,0,1,4.954,4.7,13.278,13.278,0,0,1,2.249,6.75,1.029,1.029,0,0,0-.229.6,15.949,15.949,0,0,1-1.143,3.78,18.928,18.928,0,0,1-8.562,9.349,26.951,26.951,0,0,1-4.144,1.67,13.548,13.548,0,0,1-7.786-2.131,14.374,14.374,0,0,1-5.894-17,14.638,14.638,0,0,1,6.376-7.638c.334.436.408,0,.506-.172a7.419,7.419,0,0,1,2.78-2.918,9,9,0,0,1,3.1-.783c.083-.817-.13-1.63-.014-2.451.036-.254-.218-.208-.384-.2a11.191,11.191,0,0,0-4.057.814,7.907,7.907,0,0,0-3.473,2.645c-.124.169-.37.349-.045.592.359.268.689.575,1.055.885.059-.455-.269-.629-.515-.8-.341-.241-.325-.422-.077-.724a8.894,8.894,0,0,1,6.864-3.152c.218-.01.4.029.383.3a10.5,10.5,0,0,0,.268,2.1,9.406,9.406,0,0,0-2.766.319,6.411,6.411,0,0,0-3.633,3.409l-.231-.213a1.346,1.346,0,0,0-.434-.546A1.524,1.524,0,0,0,800.871,984.35Zm7.343-12.447c.338,0,.677-.012,1.015,0a3.939,3.939,0,0,1,2.682.99,3.054,3.054,0,0,1-.535,5.174c-.151.09-.3.189-.509.326a3,3,0,0,0,2.616-2.644A3.892,3.892,0,0,0,808.214,971.9Zm-13.089,6.46a4.441,4.441,0,0,0-1.738,2.991,2.941,2.941,0,0,0,1.215,2.958,3.147,3.147,0,0,0,3.244.106,8.78,8.78,0,0,1-2.29-.117,2.643,2.643,0,0,1-1.857-2.727,7.691,7.691,0,0,1,.78-2.059A3.627,3.627,0,0,0,795.125,978.363Zm2.7-3.18c1.231-2.37,3.278-3.239,5.832-3.194C801.508,971.466,798.685,972.1,797.83,975.183Z" transform="translate(-92.55)" fill="#fcb501"/>
    <path id="Path_7" data-name="Path 7" d="M811.526,1054.862l-.245-.941a16.51,16.51,0,1,1-8.853,2.6l.272-.179a1.522,1.522,0,0,1,.847.69l-.5.309a15.5,15.5,0,1,0,23.576,10.469,15.329,15.329,0,0,0-8.469-11.288,14.728,14.728,0,0,0-6.006-1.554c-.187-.01-.522-.176-.5.262C811.315,1055.2,811.56,1054.988,811.526,1054.862Z" transform="translate(-94.581 -71.963)" fill="#4a2611"/>
    <path id="Path_8" data-name="Path 8" d="M794.675,1284.747a23.64,23.64,0,0,1-2.977-2.7c.284-.174.451.018.64.138,8.8,5.621,17.847,6,27.117,1.226.635-.327,1.224-.744,1.83-1.125.157-.1.315-.336.488-.119.14.175-.1.293-.214.409a19.356,19.356,0,0,1-5.747,4.1,20.381,20.381,0,0,1-17.812.01.729.729,0,0,0-1.033.253,7.909,7.909,0,0,0-1.633,4.254,10.084,10.084,0,0,1-.256,1.341,2.731,2.731,0,0,1-2.274,2.219,3.044,3.044,0,0,1-2.752-1.757,4.785,4.785,0,0,1,.146-3.98A7.481,7.481,0,0,1,794.675,1284.747Zm1.275.919c-.36-.506-.679-.457-1.092-.12a6.1,6.1,0,0,0-1.856,3.138c-.036.117-.079.27.087.327.138.047.189-.087.223-.181A5.8,5.8,0,0,1,795.95,1285.666Z" transform="translate(-89.929 -270.23)" fill="#dc7c07"/>
    <path id="Path_9" data-name="Path 9" d="M745.378,1381.854c0,.934-.017,1.869.007,2.8.01.4-.074.574-.53.571-1.142-.007-1.138.017-1.145-1.117,0-.539.175-1.259-.1-1.568-.324-.364-1.064-.062-1.617-.128-.476-.057-.592.143-.565.584.036.584,0,1.173.016,1.759.009.317-.069.454-.43.468-1.229.046-1.228.063-1.228-1.156,0-1.629.014-3.259-.01-4.888-.006-.432.076-.6.558-.594,1.1.025,1.1,0,1.1,1.081,0,1.683,0,1.667,1.7,1.673.449,0,.614-.111.582-.575-.039-.584,0-1.173-.015-1.759-.01-.3.084-.4.4-.415,1.272-.06,1.271-.073,1.27,1.177Q745.378,1380.811,745.378,1381.854Z" transform="translate(-46.24 -354.221)" fill="#481f09"/>
    <path id="Path_10" data-name="Path 10" d="M957.058,1381.239c0,.3,0,.607,0,.911a2.126,2.126,0,0,1-1.881,2.34,4.557,4.557,0,0,1-2.687-.168,1.97,1.97,0,0,1-1.348-1.948c0-.781,0-1.562,0-2.343a1.945,1.945,0,0,1,1.27-1.939,4.339,4.339,0,0,1,3.3-.035,1.968,1.968,0,0,1,1.354,2.01C957.056,1380.458,957.059,1380.848,957.058,1381.239Zm-4.225-.058h0c0,.347-.007.7,0,1.042a1.131,1.131,0,0,0,1.227,1.272,1.143,1.143,0,0,0,1.31-1.255c.024-.737.019-1.477-.006-2.214a1.268,1.268,0,0,0-2.527.048C952.824,1380.443,952.833,1380.812,952.833,1381.181Z" transform="translate(-230.381 -353.506)" fill="#fdb807"/>
    <path id="Path_11" data-name="Path 11" d="M1011.707,1381.2c0,.3,0,.607,0,.911a2.129,2.129,0,0,1-1.908,2.38,4.292,4.292,0,0,1-2.918-.293,1.841,1.841,0,0,1-1.066-1.661c-.024-.888-.03-1.778-.008-2.666a1.954,1.954,0,0,1,1.517-1.891,4.437,4.437,0,0,1,3,.059,1.992,1.992,0,0,1,1.385,2.056c-.006.368,0,.737,0,1.106Zm-1.717-.045h0c0-.412.02-.825,0-1.235a1.05,1.05,0,0,0-1.171-1.038c-.8-.014-1.276.342-1.3,1.039-.029.845-.028,1.691,0,2.536.022.677.466,1.026,1.235,1.038a1.076,1.076,0,0,0,1.233-1.039C1010.009,1382.028,1009.99,1381.594,1009.99,1381.16Z" transform="translate(-278.051 -353.509)" fill="#fdb807"/>
    <path id="Path_12" data-name="Path 12" d="M1062.833,1382.007q0-1.431,0-2.862c0-.219-.029-.456.309-.442a15.383,15.383,0,0,1,3.365.147,1.984,1.984,0,0,1,1.72,2.178c.019.628.03,1.257.016,1.886a2.172,2.172,0,0,1-2.058,2.328,24.884,24.884,0,0,1-2.987.085c-.353.01-.37-.192-.369-.458C1062.836,1383.915,1062.832,1382.961,1062.833,1382.007Zm1.627.036h0c0,.562-.006,1.125,0,1.687,0,.159-.064.345.147.454a1.428,1.428,0,0,0,1.961-1.07c.036-.582.011-1.167.01-1.751,0-1.282-.4-1.642-1.68-1.591-.34.014-.454.122-.443.455C1064.473,1380.832,1064.459,1381.438,1064.459,1382.044Z" transform="translate(-327.648 -354.319)" fill="#fdb807"/>
    <path id="Path_13" data-name="Path 13" d="M686.607,1380.974c0-.413.016-.826,0-1.238a1.786,1.786,0,0,1,1.287-1.9,4.331,4.331,0,0,1,3.181.045,1.882,1.882,0,0,1,1.181,1.376c.029.122.081.26-.017.373a2.02,2.02,0,0,1-1.635-.239,1.263,1.263,0,0,0-1.522-.66c-.644.135-.795.585-.787,1.163q.016,1.14,0,2.281a.954.954,0,0,0,.779,1.1,1.375,1.375,0,0,0,1.545-.541,1.756,1.756,0,0,1,1.643-.343c.122.1.079.235.052.36a1.739,1.739,0,0,1-.954,1.251,4.256,4.256,0,0,1-3.653.087,1.7,1.7,0,0,1-1.1-1.755C686.623,1381.887,686.607,1381.43,686.607,1380.974Z" transform="translate(0 -353.341)" fill="#4b230d"/>
    <path id="Path_14" data-name="Path 14" d="M796.012,1381.782c0-.934.005-1.868,0-2.8,0-.354.012-.579.447-.29a2.772,2.772,0,0,0,3.342-.035.725.725,0,0,1,.848-.054c.217.19.089.574.06.868-.021.216-.238.135-.373.137-.717.008-1.435.029-2.15-.006-.414-.021-.505.121-.5.513,0,1.145-.017,1.145,1.1,1.145.413,0,.829.031,1.238-.008.431-.041.509.143.494.523-.013.341-.011.583-.474.553-.628-.04-1.26.012-1.889-.018-.379-.018-.463.119-.466.477-.013,1.258-.027,1.258,1.243,1.258a8.38,8.38,0,0,0,1.3-.012c.679-.108.68.27.662.751-.011.285-.108.372-.386.37-1.369-.011-2.738-.015-4.106,0-.338,0-.389-.149-.386-.433C796.018,1383.737,796.011,1382.76,796.012,1381.782Z" transform="translate(-95.278 -354.147)" fill="#492009"/>
    <path id="Path_15" data-name="Path 15" d="M843.767,1382.021c0-.934.015-1.869-.008-2.8-.009-.365.1-.492.474-.485,1.216.021,2.433.027,3.649,0,.492-.011.426.278.44.586.014.328-.026.532-.443.511-.65-.032-1.3.013-1.954-.016-.388-.018-.527.087-.53.5-.008,1.183-.027,1.183,1.139,1.183.3,0,.61.023.912-.005.417-.039.61.045.618.542.008.53-.24.543-.631.528-.542-.022-1.087.01-1.629-.011-.321-.013-.412.112-.4.415.017.63-.019,1.261.014,1.889.021.408-.121.508-.516.51-1.132,0-1.132.023-1.132-1.126Q843.767,1383.129,843.767,1382.021Z" transform="translate(-136.862 -354.361)" fill="#481f09"/>
    <path id="Path_16" data-name="Path 16" d="M908.993,1382.042c0-.934.014-1.868-.007-2.8-.008-.359.089-.5.47-.492,1.216.021,2.433.026,3.648,0,.48-.01.439.271.453.586.015.34-.062.524-.461.507-.65-.027-1.3.005-1.954-.013-.319-.009-.456.065-.472.425-.056,1.255-.072,1.254,1.2,1.255a5.444,5.444,0,0,0,.781,0c.561-.082.706.153.664.683-.027.338-.165.389-.442.385-.586-.01-1.173.015-1.758-.011-.352-.016-.449.115-.437.448.021.629-.014,1.26.014,1.889.017.382-.136.474-.491.487-1.2.042-1.2.054-1.2-1.13Q908.993,1383.15,908.993,1382.042Z" transform="translate(-193.665 -354.376)" fill="#fdb807"/>
    <path id="Path_17" data-name="Path 17" d="M740.89,1243.294a8.52,8.52,0,0,1-4.129-.335,2.735,2.735,0,0,1-1.378-1.139,1.584,1.584,0,0,1,.571-2.2,1.518,1.518,0,0,1,2.183.587A5.834,5.834,0,0,0,740.89,1243.294Zm-3.727-1.884c-.114-.267-.224-.495-.31-.732a.384.384,0,0,0-.37-.3.32.32,0,0,0-.3.21.414.414,0,0,0,.1.477A1.167,1.167,0,0,0,737.163,1241.411Z" transform="translate(-42.22 -233.226)" fill="#dc7d0b"/>
    <path id="Path_18" data-name="Path 18" d="M763.3,1288.882a5.6,5.6,0,0,0-1.291,1.235,1.189,1.189,0,0,1-1.516.326,1.255,1.255,0,0,1-.609-1.379,1.2,1.2,0,0,1,1.273-.9A3.92,3.92,0,0,1,763.3,1288.882Zm-2.453.2c-.093-.1.079-.409-.226-.341a.436.436,0,0,0-.378.455.261.261,0,0,0,.29.274C760.771,1289.464,760.874,1289.323,760.848,1289.086Z" transform="translate(-63.787 -275.628)" fill="#dc7d0b"/>
    <path id="Path_19" data-name="Path 19" d="M868.886,1060.666c.034.126-.212.343.121.371.141.437.5.458.877.483a13.639,13.639,0,0,1,6.251,1.966l-.379.188c-.49-.284-.691-.186-.71.422-.087,2.82-.208,5.64-.32,8.459a.541.541,0,0,0,.241.544,4.141,4.141,0,0,1,1.575,4.155,7.19,7.19,0,0,1-.759,2.679c-.369.688-.842,1.4-1.662,1.4a1.924,1.924,0,0,1-1.615-1.357,6.744,6.744,0,0,1-.5-5.23,3.053,3.053,0,0,1,1.194-1.582.716.716,0,0,0,.344-.748c-.131-3.036-.266-6.071-.351-9.108a.857.857,0,0,0-.763-.974,14.813,14.813,0,0,0-7.716.1c-.436.125-.641.326-.521.783a.392.392,0,0,0-.02.378c-.078,1.42-.177,2.839-.227,4.26-.043,1.207-.049,2.416-.165,3.62-.206.032-.254.157-.2.342-.055.181-.1.367-.168.543a.974.974,0,0,0,.369,1.362,5.559,5.559,0,0,1,.934,1.018c.207.383.279.866.765,1.045a.155.155,0,0,1,.017.126l-.308.069c.168.169-.04.577.375.59a10.718,10.718,0,0,1-.935,4.322,7.287,7.287,0,0,0-.741-3.9c-.339,1.231-.346,2.5-.65,3.721h-.174l-.519-3.725c-.931,1.221-.718,2.617-.757,4.028a2.256,2.256,0,0,1-.438-1.037,8.6,8.6,0,0,1-.365-4.866,3.345,3.345,0,0,1,1.312-1.96.542.542,0,0,0,.286-.527c-.123-2.6-.23-5.2-.341-7.8l0,0c.14-.013.158-.138.19-.231A5.59,5.59,0,0,1,868.886,1060.666Zm6.279,13.682c.754,1.426.569,2.8.43,4.323C876.331,1077.223,876.145,1075.054,875.165,1074.348Z" transform="translate(-151.738 -77.775)" fill="#491f04"/>
    <path id="Path_20" data-name="Path 20" d="M830.595,1082.086a13.964,13.964,0,0,1,6.388,7.538,14.77,14.77,0,1,1-21.392-7.489c.073-.044.14-.1.21-.15l.231.212.006.141a14.638,14.638,0,0,0-6.376,7.638,14.374,14.374,0,0,0,5.894,17,13.547,13.547,0,0,0,7.786,2.131,9.054,9.054,0,0,0,2.519-.207,13.955,13.955,0,0,0,8.538-5.184,13.626,13.626,0,0,0,3.021-10,13.278,13.278,0,0,0-2.249-6.75,15.217,15.217,0,0,0-4.954-4.7Z" transform="translate(-106.222 -96.364)" fill="#563013"/>
    <path id="Path_21" data-name="Path 21" d="M937.06,1171.947a13.626,13.626,0,0,1-3.021,10,13.955,13.955,0,0,1-8.538,5.184,9.054,9.054,0,0,1-2.519.207,26.963,26.963,0,0,0,4.144-1.67,18.928,18.928,0,0,0,8.562-9.349,15.95,15.95,0,0,0,1.143-3.78A1.029,1.029,0,0,1,937.06,1171.947Z" transform="translate(-205.926 -174.58)" fill="#d87802"/>
    <path id="Path_22" data-name="Path 22" d="M834.2,1090.563a16.193,16.193,0,0,0-4.313,3.869c-.482.6-.907,1.255-1.362,1.889a4.012,4.012,0,0,1,1.034-2.3,14.3,14.3,0,0,1,3.835-3.655c.442-.3.61-.173.8.2Z" transform="translate(-123.603 -103.522)" fill="#efe7d8"/>
    <path id="Path_23" data-name="Path 23" d="M911.654,975.6a3.892,3.892,0,0,1,5.268,3.849,3,3,0,0,1-2.616,2.644c.213-.136.358-.236.509-.326a3.054,3.054,0,0,0,.535-5.174,3.939,3.939,0,0,0-2.682-.99C912.331,975.587,911.992,975.6,911.654,975.6Z" transform="translate(-195.993 -3.696)" fill="#5f3003"/>
    <path id="Path_24" data-name="Path 24" d="M799.432,1026.611a3.629,3.629,0,0,1-.645,1.151,7.691,7.691,0,0,0-.78,2.059,2.643,2.643,0,0,0,1.857,2.727,8.785,8.785,0,0,0,2.29.118,3.148,3.148,0,0,1-3.244-.106,2.941,2.941,0,0,1-1.215-2.958A4.441,4.441,0,0,1,799.432,1026.611Z" transform="translate(-96.708 -48.248)" fill="#5f3003"/>
    <path id="Path_25" data-name="Path 25" d="M861.733,1037.263a10.5,10.5,0,0,1-.268-2.1c.019-.274-.165-.312-.383-.3a8.894,8.894,0,0,0-6.864,3.152c-.248.3-.264.482.077.724.245.174.573.348.515.8-.366-.31-.7-.617-1.055-.885-.325-.243-.078-.423.045-.592a7.908,7.908,0,0,1,3.473-2.645,11.193,11.193,0,0,1,4.057-.814c.166,0,.42-.05.384.2-.115.82.1,1.634.014,2.45Z" transform="translate(-145.443 -55.192)" fill="#5f3003"/>
    <path id="Path_26" data-name="Path 26" d="M866.951,1058.869l-.006-.141a6.412,6.412,0,0,1,3.633-3.408,9.4,9.4,0,0,1,2.765-.319l0-.005a9,9,0,0,0-3.1.783,7.419,7.419,0,0,0-2.78,2.918C867.359,1058.874,867.285,1059.305,866.951,1058.869Z" transform="translate(-157.062 -72.914)" fill="#fff"/>
    <path id="Path_27" data-name="Path 27" d="M832.042,979.839c.855-3.086,3.679-3.718,5.832-3.194C835.32,976.6,833.273,977.468,832.042,979.839Z" transform="translate(-126.663 -4.655)" fill="#5f3003"/>
    <path id="Path_28" data-name="Path 28" d="M883.836,1148.292c-.486-.179-.558-.662-.765-1.045a.624.624,0,0,0-.227-.643,2.168,2.168,0,0,1-.908-2.28c-.052-.185,0-.31.2-.342a2.071,2.071,0,0,1,.022.389,1.624,1.624,0,0,0,.657,1.673A2.973,2.973,0,0,1,883.836,1148.292Z" transform="translate(-170.048 -150.278)" fill="#563013"/>
    <path id="Path_29" data-name="Path 29" d="M886.578,1079.685a.392.392,0,0,1,.02-.378,2.517,2.517,0,0,1,1.16-.185Z" transform="translate(-174.098 -93.874)" fill="#efe7d8"/>
    <path id="Path_30" data-name="Path 30" d="M895.008,1178.647c-.415-.013-.207-.421-.375-.59l.308-.069A.8.8,0,0,1,895.008,1178.647Z" transform="translate(-181.145 -179.844)" fill="#563013"/>
    <path id="Path_31" data-name="Path 31" d="M817.893,1307.717a5.8,5.8,0,0,0-2.638,3.165c-.034.094-.086.228-.223.181-.166-.057-.123-.21-.087-.327a6.1,6.1,0,0,1,1.856-3.138C817.213,1307.26,817.533,1307.21,817.893,1307.717Z" transform="translate(-111.735 -292.298)" fill="#efe7d8"/>
    <path id="Path_32" data-name="Path 32" d="M743.77,1247.964a1.167,1.167,0,0,1-.88-.348.414.414,0,0,1-.1-.477.32.32,0,0,1,.3-.21.384.384,0,0,1,.37.3C743.546,1247.469,743.656,1247.7,743.77,1247.964Z" transform="translate(-48.826 -239.78)" fill="#efe7d8"/>
    <path id="Path_33" data-name="Path 33" d="M763.478,1292.894c.026.238-.077.379-.313.388a.261.261,0,0,1-.29-.274.436.436,0,0,1,.378-.455C763.556,1292.485,763.384,1292.789,763.478,1292.894Z" transform="translate(-66.324 -279.437)" fill="#efe7d8"/>
    <path id="Path_34" data-name="Path 34" d="M971.159,1166.036c.98.706,1.166,2.875.43,4.323C971.728,1168.835,971.913,1167.462,971.159,1166.036Z" transform="translate(-247.784 -169.451)" fill="#efe7d8"/>
    <path id="Path_35" data-name="Path 35" d="M880.314,1146.6a2.169,2.169,0,0,0,.908,2.28.623.623,0,0,1,.227.643,5.563,5.563,0,0,0-.934-1.018.974.974,0,0,1-.369-1.362C880.215,1146.97,880.258,1146.784,880.314,1146.6Z" transform="translate(-168.422 -152.557)" fill="#efe7d8"/>
  </g>
</svg>
