<svg xmlns="http://www.w3.org/2000/svg" width="24" height="24" viewBox="0 0 24 24">
  <path id="logout" d="M5.21,24A5.115,5.115,0,0,1,0,19V5A5.115,5.115,0,0,1,5.21,0H7.79A5.114,5.114,0,0,1,13,5V8a1.043,1.043,0,0,1-2.083,0V5A3.065,3.065,0,0,0,7.79,2H5.21A3.065,3.065,0,0,0,2.084,5V19A3.065,3.065,0,0,0,5.21,22H7.79a3.065,3.065,0,0,0,3.126-3V16A1.043,1.043,0,0,1,13,16v3A5.114,5.114,0,0,1,7.79,24Zm11.817-5.293a.991.991,0,0,1,0-1.415l4.382-4.324L6.014,13a1,1,0,1,1,0-2l15.335-.03-4.32-4.263a.99.99,0,0,1,0-1.414,1.022,1.022,0,0,1,1.433,0l4.649,4.586a2.971,2.971,0,0,1,0,4.242L18.46,18.707a1.022,1.022,0,0,1-1.433,0Z" fill="#fff"/>
</svg>
