<svg xmlns="http://www.w3.org/2000/svg" width="18" height="24" viewBox="0 0 18 24">
  <path id="Recent_Orders" data-name="Recent Orders" d="M16,12H14a1,1,0,0,1,0-2h2a1,1,0,0,1,0,2Zm1,4a1,1,0,0,0-1-1H12a1,1,0,0,0,0,2h4A1,1,0,0,0,17,16Zm4,3V7a5.006,5.006,0,0,0-5-5h-.171A3.006,3.006,0,0,0,13,0H11A3.006,3.006,0,0,0,8.171,2H8A5.006,5.006,0,0,0,3,7V19a5.006,5.006,0,0,0,5,5h8A5.006,5.006,0,0,0,21,19ZM9,4a1,1,0,0,0,1-1,1,1,0,0,1,1-1h2a1,1,0,0,1,1,1,1,1,0,0,0,1,1h1a3,3,0,0,1,3,3V19a3,3,0,0,1-3,3H8a3,3,0,0,1-3-3V7A3,3,0,0,1,8,4ZM8,15a1,1,0,1,0,1,1A1,1,0,0,0,8,15Zm1.834-3.477L11.7,9.718A1,1,0,1,0,10.3,8.282l-1.64,1.59-.811-.766A1,1,0,0,0,6.48,10.561l1.008.951a1.666,1.666,0,0,0,2.345.011Z" transform="translate(-3)" fill="#fff"/>
</svg>
